<?xml version="1.0" standalone="no"?>
<!DOCTYPE svg PUBLIC "-//W3C//DTD SVG 20010904//EN"
 "http://www.w3.org/TR/2001/REC-SVG-20010904/DTD/svg10.dtd">
<svg version="1.0" xmlns="http://www.w3.org/2000/svg"
 width="70.000000pt" height="70.000000pt" viewBox="0 0 70.000000 70.000000"
 preserveAspectRatio="xMidYMid meet">
<metadata>
Created by potrace 1.12, written by Peter Selinger 2001-2015
</metadata>
<g transform="translate(0.000000,70.000000) scale(0.100000,-0.100000)"
fill="#000000" stroke="none">
<path d="M257 693 c-15 -14 -5 -33 63 -123 39 -51 69 -99 66 -106 -6 -14 31
-40 42 -29 11 11 -18 198 -33 215 -9 10 -34 22 -58 29 -23 7 -49 14 -58 17 -8
2 -18 1 -22 -3z"/>
<path d="M431 683 c-8 -16 -7 -48 4 -128 11 -78 12 -111 4 -121 -7 -9 -7 -19
1 -35 10 -18 14 -19 25 -8 18 18 75 164 75 190 0 11 -22 43 -49 72 -46 48 -49
50 -60 30z"/>
<path d="M160 626 c-56 -12 -74 -32 -48 -53 7 -6 55 -28 106 -48 52 -21 99
-46 105 -56 14 -23 47 -25 47 -3 0 17 -79 127 -112 157 -23 19 -22 19 -98 3z"/>
<path d="M573 588 c-6 -7 -28 -55 -48 -106 -21 -52 -46 -99 -56 -105 -23 -14
-25 -47 -4 -47 21 0 163 108 169 128 3 10 -1 44 -7 77 -13 61 -32 80 -54 53z"/>
<path d="M47 491 c-48 -46 -50 -49 -30 -60 16 -8 48 -7 128 4 78 11 111 12
121 4 9 -7 19 -7 35 1 18 10 19 14 8 25 -18 18 -164 75 -190 75 -11 0 -43 -22
-72 -49z"/>
<path d="M570 380 c-51 -39 -99 -69 -106 -66 -14 6 -40 -31 -29 -42 3 -3 49 0
103 6 112 14 123 22 146 101 27 94 9 94 -114 1z"/>
<path d="M125 418 c-72 -11 -88 -26 -109 -97 -27 -94 -9 -94 114 -1 51 39 99
69 106 66 12 -5 34 21 34 38 0 8 -75 5 -145 -6z"/>
<path d="M146 316 c-38 -29 -72 -60 -77 -68 -11 -20 12 -139 28 -145 23 -9 38
14 77 112 21 53 47 102 57 108 24 15 25 47 2 46 -10 0 -49 -24 -87 -53z"/>
<path d="M232 308 c-16 -20 -72 -166 -72 -189 0 -11 22 -43 49 -72 46 -48 49
-50 60 -30 8 16 7 48 -4 128 -11 78 -12 111 -4 121 7 9 7 19 -1 33 -13 25 -14
25 -28 9z"/>
<path d="M541 264 c-67 -10 -98 -11 -107 -3 -9 7 -19 7 -35 -1 -18 -10 -19
-14 -8 -25 18 -18 164 -75 190 -75 11 0 43 21 70 47 46 43 49 48 33 60 -20 15
-18 15 -143 -3z"/>
<path d="M270 240 c0 -65 23 -179 39 -194 9 -8 40 -21 70 -30 94 -27 94 -9 1
114 -39 51 -69 99 -66 106 3 8 -3 18 -14 24 -27 15 -30 13 -30 -20z"/>
<path d="M330 235 c0 -19 106 -161 125 -169 22 -8 137 17 142 31 9 23 -14 38
-112 77 -53 21 -102 47 -108 57 -14 23 -47 25 -47 4z"/>
</g>
</svg>
